%TF.GenerationSoftware,KiCad,Pcbnew,8.0.2*%
%TF.CreationDate,2024-05-29T13:58:31+02:00*%
%TF.ProjectId,porscheMuehk,706f7273-6368-4654-9d75-65686b2e6b69,rev?*%
%TF.SameCoordinates,Original*%
%TF.FileFunction,Soldermask,Bot*%
%TF.FilePolarity,Negative*%
%FSLAX46Y46*%
G04 Gerber Fmt 4.6, Leading zero omitted, Abs format (unit mm)*
G04 Created by KiCad (PCBNEW 8.0.2) date 2024-05-29 13:58:31*
%MOMM*%
%LPD*%
G01*
G04 APERTURE LIST*
G04 Aperture macros list*
%AMRoundRect*
0 Rectangle with rounded corners*
0 $1 Rounding radius*
0 $2 $3 $4 $5 $6 $7 $8 $9 X,Y pos of 4 corners*
0 Add a 4 corners polygon primitive as box body*
4,1,4,$2,$3,$4,$5,$6,$7,$8,$9,$2,$3,0*
0 Add four circle primitives for the rounded corners*
1,1,$1+$1,$2,$3*
1,1,$1+$1,$4,$5*
1,1,$1+$1,$6,$7*
1,1,$1+$1,$8,$9*
0 Add four rect primitives between the rounded corners*
20,1,$1+$1,$2,$3,$4,$5,0*
20,1,$1+$1,$4,$5,$6,$7,0*
20,1,$1+$1,$6,$7,$8,$9,0*
20,1,$1+$1,$8,$9,$2,$3,0*%
G04 Aperture macros list end*
%ADD10RoundRect,0.250000X0.620000X0.845000X-0.620000X0.845000X-0.620000X-0.845000X0.620000X-0.845000X0*%
%ADD11O,1.740000X2.190000*%
%ADD12C,3.200000*%
%ADD13C,2.200000*%
%ADD14R,1.700000X1.700000*%
%ADD15O,1.700000X1.700000*%
%ADD16RoundRect,0.250000X0.845000X-0.620000X0.845000X0.620000X-0.845000X0.620000X-0.845000X-0.620000X0*%
%ADD17O,2.190000X1.740000*%
%ADD18O,1.800000X1.800000*%
%ADD19O,1.500000X1.500000*%
G04 APERTURE END LIST*
D10*
%TO.C,J42*%
X91313000Y-106152000D03*
D11*
X88773000Y-106152000D03*
%TD*%
D12*
%TO.C,REF\u002A\u002A*%
X111800000Y-107800000D03*
%TD*%
%TO.C,REF\u002A\u002A*%
X111800000Y-23200000D03*
%TD*%
D10*
%TO.C,J41*%
X83947000Y-106152000D03*
D11*
X81407000Y-106152000D03*
%TD*%
D10*
%TO.C,J30*%
X61849000Y-94595000D03*
D11*
X59309000Y-94595000D03*
%TD*%
D10*
%TO.C,J33*%
X83947000Y-94595000D03*
D11*
X81407000Y-94595000D03*
%TD*%
D10*
%TO.C,J23*%
X69215000Y-83038000D03*
D11*
X66675000Y-83038000D03*
%TD*%
D10*
%TO.C,J44*%
X106045000Y-106152000D03*
D11*
X103505000Y-106152000D03*
%TD*%
D10*
%TO.C,J29*%
X54483000Y-94595000D03*
D11*
X51943000Y-94595000D03*
%TD*%
D13*
%TO.C,REF\u002A\u002A*%
X110628000Y-50033000D03*
%TD*%
D10*
%TO.C,J36*%
X106045000Y-94595000D03*
D11*
X103505000Y-94595000D03*
%TD*%
D10*
%TO.C,J20*%
X45212000Y-83058000D03*
D11*
X42672000Y-83058000D03*
X40132000Y-83058000D03*
%TD*%
D10*
%TO.C,J16*%
X35560000Y-83058000D03*
D11*
X33020000Y-83058000D03*
X30480000Y-83058000D03*
%TD*%
D10*
%TO.C,J28*%
X106045000Y-83038000D03*
D11*
X103505000Y-83038000D03*
%TD*%
D10*
%TO.C,J32*%
X76581000Y-94595000D03*
D11*
X74041000Y-94595000D03*
%TD*%
D10*
%TO.C,J34*%
X91313000Y-94595000D03*
D11*
X88773000Y-94595000D03*
%TD*%
D10*
%TO.C,J38*%
X61849000Y-106152000D03*
D11*
X59309000Y-106152000D03*
%TD*%
D10*
%TO.C,J22*%
X61849000Y-83038000D03*
D11*
X59309000Y-83038000D03*
%TD*%
D10*
%TO.C,J13*%
X35560000Y-106176000D03*
D11*
X33020000Y-106176000D03*
X30480000Y-106176000D03*
%TD*%
D10*
%TO.C,J39*%
X69215000Y-106152000D03*
D11*
X66675000Y-106152000D03*
%TD*%
D10*
%TO.C,J40*%
X76581000Y-106152000D03*
D11*
X74041000Y-106152000D03*
%TD*%
D14*
%TO.C,J3*%
X35712000Y-38608000D03*
D15*
X35712000Y-41148000D03*
X35712000Y-43688000D03*
X35712000Y-46228000D03*
%TD*%
D10*
%TO.C,J31*%
X69215000Y-94595000D03*
D11*
X66675000Y-94595000D03*
%TD*%
D10*
%TO.C,J26*%
X91313000Y-83038000D03*
D11*
X88773000Y-83038000D03*
%TD*%
D10*
%TO.C,J35*%
X98679000Y-94595000D03*
D11*
X96139000Y-94595000D03*
%TD*%
D10*
%TO.C,J14*%
X35560000Y-98298000D03*
D11*
X33020000Y-98298000D03*
X30480000Y-98298000D03*
%TD*%
D10*
%TO.C,J25*%
X83947000Y-83038000D03*
D11*
X81407000Y-83038000D03*
%TD*%
D14*
%TO.C,J1*%
X35687000Y-30734000D03*
D15*
X35687000Y-28194000D03*
X35687000Y-25654000D03*
X35687000Y-23114000D03*
%TD*%
D14*
%TO.C,J4*%
X42697000Y-56769000D03*
D15*
X42697000Y-59309000D03*
X42697000Y-61849000D03*
X42697000Y-64389000D03*
X42697000Y-66929000D03*
X42697000Y-69469000D03*
%TD*%
D10*
%TO.C,J19*%
X45212000Y-90678000D03*
D11*
X42672000Y-90678000D03*
X40132000Y-90678000D03*
%TD*%
D10*
%TO.C,J21*%
X54483000Y-83038000D03*
D11*
X51943000Y-83038000D03*
%TD*%
D16*
%TO.C,J2*%
X30246000Y-46228000D03*
D17*
X30246000Y-43688000D03*
X30246000Y-41148000D03*
X30246000Y-38608000D03*
%TD*%
D16*
%TO.C,J45*%
X30246000Y-60325000D03*
D17*
X30246000Y-57785000D03*
X30246000Y-55245000D03*
X30246000Y-52705000D03*
X30246000Y-50165000D03*
%TD*%
D10*
%TO.C,J27*%
X98679000Y-83038000D03*
D11*
X96139000Y-83038000D03*
%TD*%
D14*
%TO.C,J5*%
X77958000Y-40543000D03*
D15*
X77958000Y-43083000D03*
X77958000Y-45623000D03*
X77958000Y-48163000D03*
X77958000Y-50703000D03*
%TD*%
D12*
%TO.C,REF\u002A\u002A*%
X25200000Y-107800000D03*
%TD*%
D10*
%TO.C,J37*%
X54483000Y-106152000D03*
D11*
X51943000Y-106152000D03*
%TD*%
D10*
%TO.C,J43*%
X98679000Y-106152000D03*
D11*
X96139000Y-106152000D03*
%TD*%
D14*
%TO.C,J8*%
X88118000Y-25298000D03*
D15*
X85578000Y-25298000D03*
%TD*%
D12*
%TO.C,REF\u002A\u002A*%
X25200000Y-23200000D03*
%TD*%
D10*
%TO.C,J18*%
X45212000Y-98298000D03*
D11*
X42672000Y-98298000D03*
X40132000Y-98298000D03*
%TD*%
D14*
%TO.C,J7*%
X85578000Y-40538000D03*
D15*
X83038000Y-40538000D03*
%TD*%
D18*
%TO.C,U1*%
X57588000Y-22863000D03*
D19*
X57888000Y-25893000D03*
X62738000Y-25893000D03*
D18*
X63038000Y-22863000D03*
D15*
X51423000Y-22733000D03*
X51423000Y-25273000D03*
D14*
X51423000Y-27813000D03*
D15*
X51423000Y-30353000D03*
X51423000Y-32893000D03*
X51423000Y-35433000D03*
X51423000Y-37973000D03*
D14*
X51423000Y-40513000D03*
D15*
X51423000Y-43053000D03*
X51423000Y-45593000D03*
X51423000Y-48133000D03*
X51423000Y-50673000D03*
D14*
X51423000Y-53213000D03*
D15*
X51423000Y-55753000D03*
X51423000Y-58293000D03*
X51423000Y-60833000D03*
X51423000Y-63373000D03*
D14*
X51423000Y-65913000D03*
D15*
X51423000Y-68453000D03*
X51423000Y-70993000D03*
X69203000Y-70993000D03*
X69203000Y-68453000D03*
D14*
X69203000Y-65913000D03*
D15*
X69203000Y-63373000D03*
X69203000Y-60833000D03*
X69203000Y-58293000D03*
X69203000Y-55753000D03*
D14*
X69203000Y-53213000D03*
D15*
X69203000Y-50673000D03*
X69203000Y-48133000D03*
X69203000Y-45593000D03*
X69203000Y-43053000D03*
D14*
X69203000Y-40513000D03*
D15*
X69203000Y-37973000D03*
X69203000Y-35433000D03*
X69203000Y-32893000D03*
X69203000Y-30353000D03*
D14*
X69203000Y-27813000D03*
D15*
X69203000Y-25273000D03*
X69203000Y-22733000D03*
X57773000Y-70763000D03*
D14*
X60313000Y-70763000D03*
D15*
X62853000Y-70763000D03*
%TD*%
D10*
%TO.C,J17*%
X45212000Y-106176000D03*
D11*
X42672000Y-106176000D03*
X40132000Y-106176000D03*
%TD*%
D10*
%TO.C,J24*%
X76581000Y-83038000D03*
D11*
X74041000Y-83038000D03*
%TD*%
D10*
%TO.C,J15*%
X35560000Y-90678000D03*
D11*
X33020000Y-90678000D03*
X30480000Y-90678000D03*
%TD*%
M02*
