M48
; DRILL file {KiCad 8.0.2} date 2024-05-29T13:58:33+0200
; FORMAT={-:-/ absolute / metric / decimal}
; #@! TF.CreationDate,2024-05-29T13:58:33+02:00
; #@! TF.GenerationSoftware,Kicad,Pcbnew,8.0.2
; #@! TF.FileFunction,Plated,1,2,PTH
FMAT,2
METRIC
; #@! TA.AperFunction,Plated,PTH,ViaDrill
T1C0.400
; #@! TA.AperFunction,Plated,PTH,ComponentDrill
T2C1.000
; #@! TA.AperFunction,Plated,PTH,ComponentDrill
T3C1.020
; #@! TA.AperFunction,Plated,PTH,ComponentDrill
T4C1.190
%
G90
G05
T1
X36.83Y-56.896
X36.83Y-63.902
X37.338Y-33.147
X38.1Y-46.228
X38.354Y-50.165
X40.005Y-72.009
X40.005Y-74.549
X43.18Y-37.846
X46.228Y-42.037
X48.006Y-22.733
X48.006Y-25.273
X48.006Y-50.673
X49.276Y-87.884
X56.515Y-79.502
X63.881Y-79.502
X69.088Y-73.787
X71.247Y-79.502
X72.263Y-73.787
X73.279Y-73.787
X74.041Y-67.818
X76.2Y-52.959
X78.613Y-79.502
X80.772Y-74.803
X82.931Y-63.373
X82.931Y-68.453
X82.931Y-70.993
X82.931Y-72.263
X83.947Y-60.579
X84.582Y-72.263
X85.979Y-79.502
X93.218Y-79.502
X100.711Y-79.502
X107.569Y-80.137
X109.347Y-78.105
T2
X35.687Y-23.114
X35.687Y-25.654
X35.687Y-28.194
X35.687Y-30.734
X35.712Y-38.608
X35.712Y-41.148
X35.712Y-43.688
X35.712Y-46.228
X42.697Y-56.769
X42.697Y-59.309
X42.697Y-61.849
X42.697Y-64.389
X42.697Y-66.929
X42.697Y-69.469
X77.958Y-40.543
X77.958Y-43.083
X77.958Y-45.623
X77.958Y-48.163
X77.958Y-50.703
X83.038Y-40.538
X85.578Y-25.298
X85.578Y-40.538
X88.118Y-25.298
T3
X51.423Y-22.733
X51.423Y-25.273
X51.423Y-27.813
X51.423Y-30.353
X51.423Y-32.893
X51.423Y-35.433
X51.423Y-37.973
X51.423Y-40.513
X51.423Y-43.053
X51.423Y-45.593
X51.423Y-48.133
X51.423Y-50.673
X51.423Y-53.213
X51.423Y-55.753
X51.423Y-58.293
X51.423Y-60.833
X51.423Y-63.373
X51.423Y-65.913
X51.423Y-68.453
X51.423Y-70.993
X57.773Y-70.763
X60.313Y-70.763
X62.853Y-70.763
X69.203Y-22.733
X69.203Y-25.273
X69.203Y-27.813
X69.203Y-30.353
X69.203Y-32.893
X69.203Y-35.433
X69.203Y-37.973
X69.203Y-40.513
X69.203Y-43.053
X69.203Y-45.593
X69.203Y-48.133
X69.203Y-50.673
X69.203Y-53.213
X69.203Y-55.753
X69.203Y-58.293
X69.203Y-60.833
X69.203Y-63.373
X69.203Y-65.913
X69.203Y-68.453
X69.203Y-70.993
T4
X30.246Y-38.608
X30.246Y-41.148
X30.246Y-43.688
X30.246Y-46.228
X30.246Y-50.165
X30.246Y-52.705
X30.246Y-55.245
X30.246Y-57.785
X30.246Y-60.325
X30.48Y-83.058
X30.48Y-90.678
X30.48Y-98.298
X30.48Y-106.176
X33.02Y-83.058
X33.02Y-90.678
X33.02Y-98.298
X33.02Y-106.176
X35.56Y-83.058
X35.56Y-90.678
X35.56Y-98.298
X35.56Y-106.176
X40.132Y-83.058
X40.132Y-90.678
X40.132Y-98.298
X40.132Y-106.176
X42.672Y-83.058
X42.672Y-90.678
X42.672Y-98.298
X42.672Y-106.176
X45.212Y-83.058
X45.212Y-90.678
X45.212Y-98.298
X45.212Y-106.176
X51.943Y-83.038
X51.943Y-94.595
X51.943Y-106.152
X54.483Y-83.038
X54.483Y-94.595
X54.483Y-106.152
X59.309Y-83.038
X59.309Y-94.595
X59.309Y-106.152
X61.849Y-83.038
X61.849Y-94.595
X61.849Y-106.152
X66.675Y-83.038
X66.675Y-94.595
X66.675Y-106.152
X69.215Y-83.038
X69.215Y-94.595
X69.215Y-106.152
X74.041Y-83.038
X74.041Y-94.595
X74.041Y-106.152
X76.581Y-83.038
X76.581Y-94.595
X76.581Y-106.152
X81.407Y-83.038
X81.407Y-94.595
X81.407Y-106.152
X83.947Y-83.038
X83.947Y-94.595
X83.947Y-106.152
X88.773Y-83.038
X88.773Y-94.595
X88.773Y-106.152
X91.313Y-83.038
X91.313Y-94.595
X91.313Y-106.152
X96.139Y-83.038
X96.139Y-94.595
X96.139Y-106.152
X98.679Y-83.038
X98.679Y-94.595
X98.679Y-106.152
X103.505Y-83.038
X103.505Y-94.595
X103.505Y-106.152
X106.045Y-83.038
X106.045Y-94.595
X106.045Y-106.152
M30
